# xmcd
# 
# Track frame offsets:
#     150
#     17917
#     35015
#     53085
#     69571
#     85468
#     101227
#     113585
#     131254
#     147967
#     165918
#     184263
#     199121
#     213702
#     228774
#     241930
#     261254
#     274719
# 
# Disc length: 3946
# 
# Revision: 15
# Processed by: cddbd v1.5.2PL0 Copyright (c) Steve Scherf et al.
# Submitted via: fre:ac v1.0.17
# 
DISCID=010f6812
DTITLE=Fatboy Slim - The Greatest Hits - Why Try Harder
DYEAR=2006
DGENRE=Electronic
TTITLE0=The Rockafeller Skank
TTITLE1=Praise You
TTITLE2=Cornershop - Brimful Of Asha (Norman Cook Remix)
TTITLE3=Weapon Of Choice
TTITLE4=Gangster Trippin'
TTITLE5=Grrove Armada - I See You Baby (Fatboy Slim Remix)
TTITLE6=Wonderful Night
TTITLE7=Right Here, Right Now
TTITLE8=Going Out Of My Head
TTITLE9=Sunset (Bird Of Prey)
TTITLE10=Everybody Loves A Carnival
TTITLE11=Don't Let The Man Get You Down
TTITLE12=Demons
TTITLE13=Sho Nuff
TTITLE14=Slash Dot Dash
TTITLE15=Santa Cruz
TTITLE16=Champion Sound
TTITLE17=That Old Pair Of Jeans
EXTD=
EXTT0=
EXTT1=
EXTT2=
EXTT3=
EXTT4=
EXTT5=
EXTT6=
EXTT7=
EXTT8=
EXTT9=
EXTT10=
EXTT11=
EXTT12=
EXTT13=
EXTT14=
EXTT15=
EXTT16=
EXTT17=
PLAYORDER=
